# xmcd
#
# Track frame offsets: 
#        180
#        16554
#        38034
#        50272
#        65158
#        83914
#        108767
#        120329
#        132369
#        146347
#        162048
#
# Disc length: 2857 seconds
#
# Revision: 1
# Processed by: cddbd v1.5.2PL0 Copyright (c) Steve Scherf et al.
# Submitted via: ExactAudioCopy v0.95b4
#
DISCID=800b270b
DTITLE=Niels van Hoorn - Colours
DYEAR=2002
DGENRE=
TTITLE0=Landscape
TTITLE1=Indian Dakota
TTITLE2=Space Horns
TTITLE3=Desert Walk
TTITLE4=Traffic Jam
TTITLE5=Grand Canyon
TTITLE6=Heritage (Part 1 and 2)
TTITLE7=Mist
TTITLE8=Mellow
TTITLE9=Strange Dream
TTITLE10=Klaverland Sunset Jam
EXTD=
EXTT0=
EXTT1=
EXTT2=
EXTT3=
EXTT4=
EXTT5=
EXTT6=
EXTT7=
EXTT8=
EXTT9=
EXTT10=
PLAYORDER=
